<?xml version="1.0" encoding="UTF-8"?>
<svg xmlns="http://www.w3.org/2000/svg" xmlns:xlink="http://www.w3.org/1999/xlink" width="3840" height="2160" viewBox="0 0 3840 2160">
<defs>
<clipPath id="clip-0">

</clipPath>
<clipPath id="clip-1">
<path clip-rule="nonzero" d="M 0.0195312 0 L 0.0195312 2160 L 3839.640625 2159.914062 L 3839.640625 0.0898438 Z M 0.0195312 0 "/>
</clipPath>
<linearGradient id="linear-pattern-0" gradientUnits="userSpaceOnUse" x1="193.758" y1="2125.56" x2="193.758" y2="-754.44" gradientTransform="matrix(0.75, 0, 0, 0.75, 1750.51, 565.83)">
<stop offset="0" stop-color="rgb(74.900818%, 85.096741%, 57.254028%)" stop-opacity="1"/>
<stop offset="0.25" stop-color="rgb(74.900818%, 85.096741%, 57.254028%)" stop-opacity="1"/>
<stop offset="0.3125" stop-color="rgb(74.900818%, 85.096741%, 57.254028%)" stop-opacity="1"/>
<stop offset="0.320312" stop-color="rgb(74.841309%, 85.041809%, 57.226562%)" stop-opacity="1"/>
<stop offset="0.324219" stop-color="rgb(74.420166%, 84.648132%, 57.03125%)" stop-opacity="1"/>
<stop offset="0.328125" stop-color="rgb(74.057007%, 84.309387%, 56.864929%)" stop-opacity="1"/>
<stop offset="0.332031" stop-color="rgb(73.693848%, 83.970642%, 56.697083%)" stop-opacity="1"/>
<stop offset="0.335938" stop-color="rgb(73.330688%, 83.631897%, 56.530762%)" stop-opacity="1"/>
<stop offset="0.339844" stop-color="rgb(72.967529%, 83.293152%, 56.362915%)" stop-opacity="1"/>
<stop offset="0.34375" stop-color="rgb(72.60437%, 82.955933%, 56.196594%)" stop-opacity="1"/>
<stop offset="0.347656" stop-color="rgb(72.241211%, 82.617188%, 56.028748%)" stop-opacity="1"/>
<stop offset="0.351562" stop-color="rgb(71.878052%, 82.278442%, 55.862427%)" stop-opacity="1"/>
<stop offset="0.355469" stop-color="rgb(71.514893%, 81.939697%, 55.69458%)" stop-opacity="1"/>
<stop offset="0.359375" stop-color="rgb(71.151733%, 81.600952%, 55.528259%)" stop-opacity="1"/>
<stop offset="0.363281" stop-color="rgb(70.788574%, 81.262207%, 55.361938%)" stop-opacity="1"/>
<stop offset="0.367187" stop-color="rgb(70.425415%, 80.923462%, 55.195618%)" stop-opacity="1"/>
<stop offset="0.371094" stop-color="rgb(70.062256%, 80.584717%, 55.027771%)" stop-opacity="1"/>
<stop offset="0.375" stop-color="rgb(69.699097%, 80.245972%, 54.86145%)" stop-opacity="1"/>
<stop offset="0.378906" stop-color="rgb(69.335938%, 79.907227%, 54.693604%)" stop-opacity="1"/>
<stop offset="0.382812" stop-color="rgb(68.972778%, 79.570007%, 54.527283%)" stop-opacity="1"/>
<stop offset="0.386719" stop-color="rgb(68.609619%, 79.231262%, 54.359436%)" stop-opacity="1"/>
<stop offset="0.390625" stop-color="rgb(68.24646%, 78.892517%, 54.193115%)" stop-opacity="1"/>
<stop offset="0.394531" stop-color="rgb(67.883301%, 78.553772%, 54.025269%)" stop-opacity="1"/>
<stop offset="0.398437" stop-color="rgb(67.520142%, 78.215027%, 53.858948%)" stop-opacity="1"/>
<stop offset="0.402344" stop-color="rgb(67.156982%, 77.876282%, 53.691101%)" stop-opacity="1"/>
<stop offset="0.40625" stop-color="rgb(66.795349%, 77.537537%, 53.52478%)" stop-opacity="1"/>
<stop offset="0.410156" stop-color="rgb(66.43219%, 77.198792%, 53.356934%)" stop-opacity="1"/>
<stop offset="0.414062" stop-color="rgb(66.069031%, 76.860046%, 53.190613%)" stop-opacity="1"/>
<stop offset="0.417969" stop-color="rgb(65.705872%, 76.521301%, 53.022766%)" stop-opacity="1"/>
<stop offset="0.421875" stop-color="rgb(65.342712%, 76.182556%, 52.856445%)" stop-opacity="1"/>
<stop offset="0.425781" stop-color="rgb(64.979553%, 75.843811%, 52.688599%)" stop-opacity="1"/>
<stop offset="0.429687" stop-color="rgb(64.616394%, 75.506592%, 52.522278%)" stop-opacity="1"/>
<stop offset="0.433594" stop-color="rgb(64.253235%, 75.167847%, 52.354431%)" stop-opacity="1"/>
<stop offset="0.4375" stop-color="rgb(63.890076%, 74.829102%, 52.18811%)" stop-opacity="1"/>
<stop offset="0.441406" stop-color="rgb(63.526917%, 74.490356%, 52.020264%)" stop-opacity="1"/>
<stop offset="0.445312" stop-color="rgb(63.163757%, 74.151611%, 51.853943%)" stop-opacity="1"/>
<stop offset="0.449219" stop-color="rgb(62.800598%, 73.812866%, 51.686096%)" stop-opacity="1"/>
<stop offset="0.453125" stop-color="rgb(62.437439%, 73.474121%, 51.519775%)" stop-opacity="1"/>
<stop offset="0.457031" stop-color="rgb(62.07428%, 73.135376%, 51.351929%)" stop-opacity="1"/>
<stop offset="0.460937" stop-color="rgb(61.711121%, 72.796631%, 51.185608%)" stop-opacity="1"/>
<stop offset="0.464844" stop-color="rgb(61.347961%, 72.457886%, 51.017761%)" stop-opacity="1"/>
<stop offset="0.46875" stop-color="rgb(60.984802%, 72.120667%, 50.85144%)" stop-opacity="1"/>
<stop offset="0.472656" stop-color="rgb(60.621643%, 71.781921%, 50.683594%)" stop-opacity="1"/>
<stop offset="0.476562" stop-color="rgb(60.258484%, 71.443176%, 50.517273%)" stop-opacity="1"/>
<stop offset="0.480469" stop-color="rgb(59.895325%, 71.104431%, 50.349426%)" stop-opacity="1"/>
<stop offset="0.484375" stop-color="rgb(59.532166%, 70.765686%, 50.183105%)" stop-opacity="1"/>
<stop offset="0.488281" stop-color="rgb(59.169006%, 70.426941%, 50.015259%)" stop-opacity="1"/>
<stop offset="0.492187" stop-color="rgb(58.805847%, 70.088196%, 49.848938%)" stop-opacity="1"/>
<stop offset="0.496094" stop-color="rgb(58.442688%, 69.749451%, 49.681091%)" stop-opacity="1"/>
<stop offset="0.5" stop-color="rgb(58.079529%, 69.410706%, 49.514771%)" stop-opacity="1"/>
<stop offset="0.503906" stop-color="rgb(57.71637%, 69.07196%, 49.346924%)" stop-opacity="1"/>
<stop offset="0.507812" stop-color="rgb(57.35321%, 68.733215%, 49.180603%)" stop-opacity="1"/>
<stop offset="0.511719" stop-color="rgb(56.990051%, 68.39447%, 49.012756%)" stop-opacity="1"/>
<stop offset="0.515625" stop-color="rgb(56.626892%, 68.057251%, 48.846436%)" stop-opacity="1"/>
<stop offset="0.519531" stop-color="rgb(56.263733%, 67.718506%, 48.678589%)" stop-opacity="1"/>
<stop offset="0.523438" stop-color="rgb(55.900574%, 67.379761%, 48.512268%)" stop-opacity="1"/>
<stop offset="0.527344" stop-color="rgb(55.537415%, 67.041016%, 48.344421%)" stop-opacity="1"/>
<stop offset="0.53125" stop-color="rgb(55.175781%, 66.702271%, 48.178101%)" stop-opacity="1"/>
<stop offset="0.535156" stop-color="rgb(54.812622%, 66.363525%, 48.010254%)" stop-opacity="1"/>
<stop offset="0.539062" stop-color="rgb(54.449463%, 66.02478%, 47.843933%)" stop-opacity="1"/>
<stop offset="0.542969" stop-color="rgb(54.086304%, 65.686035%, 47.676086%)" stop-opacity="1"/>
<stop offset="0.546875" stop-color="rgb(53.723145%, 65.34729%, 47.509766%)" stop-opacity="1"/>
<stop offset="0.550781" stop-color="rgb(53.359985%, 65.008545%, 47.341919%)" stop-opacity="1"/>
<stop offset="0.554687" stop-color="rgb(52.996826%, 64.671326%, 47.175598%)" stop-opacity="1"/>
<stop offset="0.558594" stop-color="rgb(52.633667%, 64.332581%, 47.007751%)" stop-opacity="1"/>
<stop offset="0.5625" stop-color="rgb(52.270508%, 63.993835%, 46.841431%)" stop-opacity="1"/>
<stop offset="0.566406" stop-color="rgb(51.907349%, 63.65509%, 46.673584%)" stop-opacity="1"/>
<stop offset="0.570312" stop-color="rgb(51.544189%, 63.316345%, 46.507263%)" stop-opacity="1"/>
<stop offset="0.574219" stop-color="rgb(51.18103%, 62.9776%, 46.339417%)" stop-opacity="1"/>
<stop offset="0.578125" stop-color="rgb(50.817871%, 62.638855%, 46.173096%)" stop-opacity="1"/>
<stop offset="0.582031" stop-color="rgb(50.454712%, 62.30011%, 46.005249%)" stop-opacity="1"/>
<stop offset="0.585938" stop-color="rgb(50.091553%, 61.961365%, 45.838928%)" stop-opacity="1"/>
<stop offset="0.589844" stop-color="rgb(49.728394%, 61.62262%, 45.671082%)" stop-opacity="1"/>
<stop offset="0.59375" stop-color="rgb(49.365234%, 61.283875%, 45.504761%)" stop-opacity="1"/>
<stop offset="0.597656" stop-color="rgb(49.002075%, 60.945129%, 45.336914%)" stop-opacity="1"/>
<stop offset="0.601562" stop-color="rgb(48.638916%, 60.60791%, 45.170593%)" stop-opacity="1"/>
<stop offset="0.605469" stop-color="rgb(48.275757%, 60.269165%, 45.002747%)" stop-opacity="1"/>
<stop offset="0.609375" stop-color="rgb(47.912598%, 59.93042%, 44.836426%)" stop-opacity="1"/>
<stop offset="0.613281" stop-color="rgb(47.549438%, 59.591675%, 44.668579%)" stop-opacity="1"/>
<stop offset="0.617187" stop-color="rgb(47.186279%, 59.25293%, 44.502258%)" stop-opacity="1"/>
<stop offset="0.621094" stop-color="rgb(46.82312%, 58.914185%, 44.334412%)" stop-opacity="1"/>
<stop offset="0.625" stop-color="rgb(46.459961%, 58.575439%, 44.168091%)" stop-opacity="1"/>
<stop offset="0.628906" stop-color="rgb(46.096802%, 58.236694%, 44.000244%)" stop-opacity="1"/>
<stop offset="0.632812" stop-color="rgb(45.733643%, 57.897949%, 43.833923%)" stop-opacity="1"/>
<stop offset="0.636719" stop-color="rgb(45.370483%, 57.559204%, 43.666077%)" stop-opacity="1"/>
<stop offset="0.640625" stop-color="rgb(45.007324%, 57.221985%, 43.499756%)" stop-opacity="1"/>
<stop offset="0.644531" stop-color="rgb(44.644165%, 56.88324%, 43.331909%)" stop-opacity="1"/>
<stop offset="0.648438" stop-color="rgb(44.281006%, 56.544495%, 43.165588%)" stop-opacity="1"/>
<stop offset="0.652344" stop-color="rgb(43.917847%, 56.20575%, 42.997742%)" stop-opacity="1"/>
<stop offset="0.65625" stop-color="rgb(43.556213%, 55.867004%, 42.831421%)" stop-opacity="1"/>
<stop offset="0.660156" stop-color="rgb(43.193054%, 55.528259%, 42.663574%)" stop-opacity="1"/>
<stop offset="0.664062" stop-color="rgb(42.829895%, 55.189514%, 42.497253%)" stop-opacity="1"/>
<stop offset="0.667969" stop-color="rgb(42.466736%, 54.850769%, 42.329407%)" stop-opacity="1"/>
<stop offset="0.671875" stop-color="rgb(42.103577%, 54.512024%, 42.163086%)" stop-opacity="1"/>
<stop offset="0.675781" stop-color="rgb(41.740417%, 54.173279%, 41.995239%)" stop-opacity="1"/>
<stop offset="0.679687" stop-color="rgb(41.377258%, 53.834534%, 41.828918%)" stop-opacity="1"/>
<stop offset="0.683594" stop-color="rgb(41.014099%, 53.495789%, 41.661072%)" stop-opacity="1"/>
<stop offset="0.6875" stop-color="rgb(40.65094%, 53.158569%, 41.494751%)" stop-opacity="1"/>
<stop offset="0.691406" stop-color="rgb(40.287781%, 52.819824%, 41.326904%)" stop-opacity="1"/>
<stop offset="0.695312" stop-color="rgb(39.924622%, 52.481079%, 41.160583%)" stop-opacity="1"/>
<stop offset="0.699219" stop-color="rgb(39.561462%, 52.142334%, 40.992737%)" stop-opacity="1"/>
<stop offset="0.703125" stop-color="rgb(39.198303%, 51.803589%, 40.826416%)" stop-opacity="1"/>
<stop offset="0.707031" stop-color="rgb(38.835144%, 51.464844%, 40.658569%)" stop-opacity="1"/>
<stop offset="0.710938" stop-color="rgb(38.471985%, 51.126099%, 40.492249%)" stop-opacity="1"/>
<stop offset="0.714844" stop-color="rgb(38.108826%, 50.787354%, 40.324402%)" stop-opacity="1"/>
<stop offset="0.71875" stop-color="rgb(37.745667%, 50.448608%, 40.158081%)" stop-opacity="1"/>
<stop offset="0.722656" stop-color="rgb(37.382507%, 50.109863%, 39.990234%)" stop-opacity="1"/>
<stop offset="0.726562" stop-color="rgb(37.019348%, 49.772644%, 39.823914%)" stop-opacity="1"/>
<stop offset="0.730469" stop-color="rgb(36.656189%, 49.433899%, 39.656067%)" stop-opacity="1"/>
<stop offset="0.734375" stop-color="rgb(36.29303%, 49.095154%, 39.489746%)" stop-opacity="1"/>
<stop offset="0.738281" stop-color="rgb(35.929871%, 48.756409%, 39.321899%)" stop-opacity="1"/>
<stop offset="0.742187" stop-color="rgb(35.566711%, 48.417664%, 39.155579%)" stop-opacity="1"/>
<stop offset="0.746094" stop-color="rgb(35.203552%, 48.078918%, 38.987732%)" stop-opacity="1"/>
<stop offset="0.75" stop-color="rgb(34.840393%, 47.740173%, 38.821411%)" stop-opacity="1"/>
<stop offset="0.753906" stop-color="rgb(34.477234%, 47.401428%, 38.653564%)" stop-opacity="1"/>
<stop offset="0.757812" stop-color="rgb(34.114075%, 47.062683%, 38.487244%)" stop-opacity="1"/>
<stop offset="0.761719" stop-color="rgb(33.750916%, 46.723938%, 38.319397%)" stop-opacity="1"/>
<stop offset="0.765625" stop-color="rgb(33.387756%, 46.385193%, 38.153076%)" stop-opacity="1"/>
<stop offset="0.769531" stop-color="rgb(33.024597%, 46.046448%, 37.985229%)" stop-opacity="1"/>
<stop offset="0.773438" stop-color="rgb(32.661438%, 45.709229%, 37.818909%)" stop-opacity="1"/>
<stop offset="0.777344" stop-color="rgb(32.298279%, 45.370483%, 37.651062%)" stop-opacity="1"/>
<stop offset="0.78125" stop-color="rgb(31.93512%, 45.031738%, 37.484741%)" stop-opacity="1"/>
<stop offset="0.785156" stop-color="rgb(31.57196%, 44.692993%, 37.316895%)" stop-opacity="1"/>
<stop offset="0.789062" stop-color="rgb(31.210327%, 44.354248%, 37.150574%)" stop-opacity="1"/>
<stop offset="0.792969" stop-color="rgb(30.847168%, 44.015503%, 36.982727%)" stop-opacity="1"/>
<stop offset="0.796875" stop-color="rgb(30.484009%, 43.676758%, 36.816406%)" stop-opacity="1"/>
<stop offset="0.800781" stop-color="rgb(30.12085%, 43.338013%, 36.64856%)" stop-opacity="1"/>
<stop offset="0.804687" stop-color="rgb(29.75769%, 42.999268%, 36.482239%)" stop-opacity="1"/>
<stop offset="0.808594" stop-color="rgb(29.394531%, 42.660522%, 36.314392%)" stop-opacity="1"/>
<stop offset="0.8125" stop-color="rgb(29.031372%, 42.323303%, 36.148071%)" stop-opacity="1"/>
<stop offset="0.816406" stop-color="rgb(28.668213%, 41.984558%, 35.980225%)" stop-opacity="1"/>
<stop offset="0.820312" stop-color="rgb(28.305054%, 41.645813%, 35.813904%)" stop-opacity="1"/>
<stop offset="0.824219" stop-color="rgb(27.941895%, 41.307068%, 35.646057%)" stop-opacity="1"/>
<stop offset="0.828125" stop-color="rgb(27.578735%, 40.968323%, 35.479736%)" stop-opacity="1"/>
<stop offset="0.832031" stop-color="rgb(27.215576%, 40.629578%, 35.31189%)" stop-opacity="1"/>
<stop offset="0.835938" stop-color="rgb(26.852417%, 40.290833%, 35.145569%)" stop-opacity="1"/>
<stop offset="0.839844" stop-color="rgb(26.489258%, 39.952087%, 34.977722%)" stop-opacity="1"/>
<stop offset="0.84375" stop-color="rgb(26.126099%, 39.613342%, 34.811401%)" stop-opacity="1"/>
<stop offset="0.847656" stop-color="rgb(25.762939%, 39.274597%, 34.643555%)" stop-opacity="1"/>
<stop offset="0.851562" stop-color="rgb(25.39978%, 38.935852%, 34.477234%)" stop-opacity="1"/>
<stop offset="0.855469" stop-color="rgb(25.036621%, 38.597107%, 34.309387%)" stop-opacity="1"/>
<stop offset="0.859375" stop-color="rgb(24.673462%, 38.259888%, 34.143066%)" stop-opacity="1"/>
<stop offset="0.863281" stop-color="rgb(24.310303%, 37.921143%, 33.97522%)" stop-opacity="1"/>
<stop offset="0.867187" stop-color="rgb(23.947144%, 37.582397%, 33.808899%)" stop-opacity="1"/>
<stop offset="0.871094" stop-color="rgb(23.583984%, 37.243652%, 33.641052%)" stop-opacity="1"/>
<stop offset="0.875" stop-color="rgb(23.220825%, 36.904907%, 33.474731%)" stop-opacity="1"/>
<stop offset="0.878906" stop-color="rgb(22.857666%, 36.566162%, 33.306885%)" stop-opacity="1"/>
<stop offset="0.882812" stop-color="rgb(22.494507%, 36.227417%, 33.140564%)" stop-opacity="1"/>
<stop offset="0.886719" stop-color="rgb(22.131348%, 35.888672%, 32.972717%)" stop-opacity="1"/>
<stop offset="0.890625" stop-color="rgb(21.768188%, 35.549927%, 32.806396%)" stop-opacity="1"/>
<stop offset="0.894531" stop-color="rgb(21.405029%, 35.211182%, 32.63855%)" stop-opacity="1"/>
<stop offset="0.898438" stop-color="rgb(21.04187%, 34.873962%, 32.472229%)" stop-opacity="1"/>
<stop offset="0.902344" stop-color="rgb(20.678711%, 34.535217%, 32.304382%)" stop-opacity="1"/>
<stop offset="0.90625" stop-color="rgb(20.315552%, 34.196472%, 32.138062%)" stop-opacity="1"/>
<stop offset="0.910156" stop-color="rgb(19.952393%, 33.857727%, 31.970215%)" stop-opacity="1"/>
<stop offset="0.914062" stop-color="rgb(19.590759%, 33.518982%, 31.803894%)" stop-opacity="1"/>
<stop offset="0.917969" stop-color="rgb(19.2276%, 33.180237%, 31.636047%)" stop-opacity="1"/>
<stop offset="0.921875" stop-color="rgb(18.864441%, 32.841492%, 31.469727%)" stop-opacity="1"/>
<stop offset="0.925781" stop-color="rgb(18.501282%, 32.502747%, 31.30188%)" stop-opacity="1"/>
<stop offset="0.929687" stop-color="rgb(18.138123%, 32.164001%, 31.135559%)" stop-opacity="1"/>
<stop offset="0.933594" stop-color="rgb(17.774963%, 31.825256%, 30.967712%)" stop-opacity="1"/>
<stop offset="0.9375" stop-color="rgb(17.411804%, 31.486511%, 30.801392%)" stop-opacity="1"/>
<stop offset="0.941406" stop-color="rgb(17.048645%, 31.147766%, 30.633545%)" stop-opacity="1"/>
<stop offset="0.945312" stop-color="rgb(16.685486%, 30.810547%, 30.467224%)" stop-opacity="1"/>
<stop offset="0.949219" stop-color="rgb(16.322327%, 30.471802%, 30.299377%)" stop-opacity="1"/>
<stop offset="0.953125" stop-color="rgb(15.959167%, 30.133057%, 30.133057%)" stop-opacity="1"/>
<stop offset="0.957031" stop-color="rgb(15.596008%, 29.794312%, 29.96521%)" stop-opacity="1"/>
<stop offset="0.960938" stop-color="rgb(15.232849%, 29.455566%, 29.798889%)" stop-opacity="1"/>
<stop offset="0.964844" stop-color="rgb(14.86969%, 29.116821%, 29.631042%)" stop-opacity="1"/>
<stop offset="0.96875" stop-color="rgb(14.506531%, 28.778076%, 29.464722%)" stop-opacity="1"/>
<stop offset="0.972656" stop-color="rgb(14.143372%, 28.439331%, 29.296875%)" stop-opacity="1"/>
<stop offset="0.976562" stop-color="rgb(13.780212%, 28.100586%, 29.130554%)" stop-opacity="1"/>
<stop offset="0.980469" stop-color="rgb(13.417053%, 27.761841%, 28.962708%)" stop-opacity="1"/>
<stop offset="0.984375" stop-color="rgb(13.053894%, 27.424622%, 28.796387%)" stop-opacity="1"/>
<stop offset="0.988281" stop-color="rgb(12.690735%, 27.085876%, 28.62854%)" stop-opacity="1"/>
<stop offset="0.992187" stop-color="rgb(12.327576%, 26.747131%, 28.462219%)" stop-opacity="1"/>
<stop offset="0.996094" stop-color="rgb(11.964417%, 26.408386%, 28.294373%)" stop-opacity="1"/>
<stop offset="1" stop-color="rgb(11.601257%, 26.069641%, 28.128052%)" stop-opacity="1"/>
</linearGradient>
</defs>
<g clip-path="url(#clip-0)">
<g clip-path="url(#clip-1)">
<path fill-rule="nonzero" fill="url(#linear-pattern-0)" d="M 0.0195312 0 L 0.0195312 2160 L 3839.640625 2160 L 3839.640625 0 Z M 0.0195312 0 "/>
</g>
</g>
<path fill-rule="nonzero" fill="rgb(97.264099%, 91.796875%, 64.256287%)" fill-opacity="1" d="M 1919.839844 1717.417969 C 2318.769531 1717.417969 2642.171875 1394.023438 2642.171875 995.089844 C 2642.171875 596.160156 2318.769531 272.761719 1919.839844 272.761719 C 1520.910156 272.761719 1197.5 596.160156 1197.5 995.089844 C 1197.5 1394.023438 1520.898438 1717.414062 1919.839844 1717.417969 Z M 1919.839844 1717.417969 "/>
<path fill-rule="nonzero" fill="rgb(36.863708%, 49.804688%, 39.598083%)" fill-opacity="1" d="M 3396.621094 1069.890625 L 3132.679688 1215.25 C 3115.769531 1222.015625 3090.671875 1228.085938 3057.378906 1233.453125 C 2993.46875 1242.367188 2939.039062 1247.984375 2894.089844 1250.300781 C 2874.011719 1253.59375 2856.839844 1258.097656 2842.570312 1263.816406 C 2694.039062 1366.472656 2604.769531 1423.984375 2574.75 1436.355469 C 2522.019531 1464.308594 2483.128906 1478.285156 2458.089844 1478.285156 L 2217.699219 1430.917969 C 2210.550781 1430.359375 2200.761719 1430.082031 2188.339844 1430.082031 C 2154.75 1430.082031 2101.871094 1432.113281 2029.691406 1436.179688 C 1933.289062 1410.570312 1795.171875 1391.03125 1615.339844 1377.5625 L 1383.46875 1291.933594 C 1381.070312 1291.695312 1378.210938 1291.574219 1374.890625 1291.574219 C 1346.148438 1291.574219 1282.671875 1300.460938 1184.441406 1318.238281 C 1172.808594 1319.003906 1163.019531 1319.390625 1155.089844 1319.390625 C 1145.691406 1319.390625 1138.890625 1318.851562 1134.691406 1317.773438 C 1046.109375 1292.203125 917.097656 1230.117188 747.648438 1131.511719 C 743.425781 1131.011719 739.148438 1130.761719 734.816406 1130.761719 C 721.890625 1130.761719 708.476562 1132.96875 694.570312 1137.390625 C 591.589844 1202.046875 510.316406 1238.667969 450.757812 1247.257812 L 291.136719 1225.878906 C 191.816406 1242.289062 129.019531 1250.492188 102.742188 1250.492188 C 99.671875 1250.492188 97.097656 1250.378906 95.023438 1250.15625 C 58.597656 1242.898438 26.9375 1227.042969 0.0351562 1202.59375 L 0.0195312 1202.59375 L 0.0195312 2160 L 3839.640625 2159.914062 L 3839.640625 1082.921875 Z M 3396.621094 1069.890625 "/>
<path fill-rule="nonzero" fill="rgb(12.156677%, 26.660156%, 28.24707%)" fill-opacity="1" d="M 1913.378906 1186.039062 L 1913.378906 1186.042969 C 1915.910156 1194.886719 1917.558594 1200.972656 1917.949219 1204.355469 C 1920.300781 1225.042969 1924.910156 1248.820312 1928.171875 1276.222656 C 1928.519531 1279.167969 1928.839844 1281.976562 1929.128906 1284.652344 C 1906.628906 1292.351562 1884.539062 1300.191406 1862.851562 1308.175781 C 1863.859375 1299.273438 1864.660156 1292.140625 1865.691406 1286.867188 C 1868.859375 1270.699219 1872.550781 1253.894531 1874.828125 1236.125 C 1877.070312 1218.617188 1877.609375 1205.039062 1877.609375 1195.519531 C 1877.609375 1192.652344 1877.570312 1189.832031 1877.460938 1187.0625 L 1877.46875 1187.0625 C 1890.300781 1188.035156 1898.378906 1188.519531 1901.71875 1188.519531 C 1902.679688 1188.519531 1903.230469 1188.4375 1903.421875 1188.398438 C 1907.070312 1187.667969 1910.398438 1186.925781 1913.378906 1186.039062 Z M 1783.171875 1188.253906 C 1791.320312 1188.253906 1804.46875 1190.53125 1822.648438 1194.960938 C 1822.808594 1195 1822.96875 1195.003906 1823.140625 1195.003906 C 1823.25 1195.003906 1823.371094 1195 1823.488281 1195 C 1823.5 1195 1823.519531 1195.003906 1823.53125 1195.003906 L 1823.519531 1195.003906 C 1825.421875 1205.554688 1827.359375 1219.191406 1828.519531 1235.980469 C 1829.640625 1252.433594 1829.789062 1268.449219 1829.171875 1283.964844 C 1828.730469 1294.988281 1827.210938 1307.792969 1825.019531 1322.40625 L 1825.011719 1322.410156 C 1791.769531 1335.179688 1759.5 1348.300781 1728.230469 1361.777344 C 1716.46875 1365.585938 1679.109375 1381.015625 1616.140625 1408.058594 L 1616.140625 1408.0625 C 1616.691406 1401.730469 1617.890625 1396.101562 1619.710938 1391.152344 C 1622.441406 1383.660156 1625.058594 1376 1630.980469 1371.101562 C 1655.460938 1350.902344 1669.300781 1341.257812 1670.71875 1339.710938 C 1679.839844 1329.757812 1688.230469 1319.019531 1695.539062 1307.148438 C 1701.710938 1297.132812 1708.039062 1287.683594 1711.679688 1277.601562 C 1718.519531 1258.695312 1722.269531 1243.40625 1725.75 1232.671875 L 1725.738281 1232.675781 C 1726.871094 1230.550781 1727.808594 1228.457031 1728.988281 1226.648438 C 1736.421875 1215.265625 1742.820312 1208.019531 1747.179688 1203.9375 C 1755.628906 1196.027344 1765.480469 1190.871094 1777.339844 1188.820312 C 1778.878906 1188.550781 1780.808594 1188.253906 1783.171875 1188.253906 Z M 1603.078125 1264.535156 L 1603.089844 1264.539062 L 1599.878906 1315.605469 C 1598.640625 1320.699219 1595.351562 1328.160156 1590.109375 1338.046875 C 1588.730469 1340.65625 1583.261719 1346.753906 1574.289062 1356.910156 C 1572.839844 1358.546875 1572.039062 1361.382812 1571.601562 1364.925781 C 1571 1369.832031 1570.949219 1375.382812 1572.578125 1381.164062 C 1577.441406 1398.457031 1581.101562 1412.097656 1583.429688 1422.164062 L 1583.421875 1422.164062 C 1549.261719 1436.933594 1509.210938 1454.371094 1463.289062 1474.476562 L 1463.289062 1474.480469 C 1463.480469 1473.167969 1463.71875 1471.800781 1464.011719 1470.382812 C 1472.671875 1427.507812 1483.589844 1393.835938 1494.609375 1368.851562 C 1500.089844 1356.453125 1504.089844 1346.257812 1510.089844 1342 C 1547.789062 1315.277344 1570.269531 1301.230469 1575.480469 1296.605469 C 1586.851562 1286.53125 1596.070312 1276.566406 1602.390625 1265.890625 C 1602.660156 1265.441406 1602.859375 1264.972656 1603.078125 1264.535156 Z M 2039.070312 587.179688 L 2038.019531 587.21875 C 2035.308594 587.449219 2032.679688 588.339844 2031.609375 590.730469 C 2018.359375 620.480469 2006.398438 643.921875 1994.191406 660.371094 C 1992.320312 662.898438 1990.238281 665.820312 1987.101562 668.140625 C 1971.890625 679.339844 1963.019531 686.070312 1961.25 689.390625 L 1945.320312 736.71875 L 1929.300781 747.859375 C 1927.910156 748.488281 1921.660156 756.058594 1910.578125 770.570312 C 1907.738281 774.289062 1905.789062 779.28125 1903.890625 785.28125 C 1903.351562 787.011719 1903.550781 788.511719 1905.308594 790.109375 L 1914.109375 793.621094 L 1916.910156 795.121094 C 1919.859375 797.171875 1921.949219 799.160156 1922.699219 801.289062 C 1924.039062 805.109375 1924.5 808.929688 1924.558594 812.589844 C 1917.179688 827.199219 1908.628906 840.410156 1899.148438 852.410156 C 1889.53125 864.578125 1887.949219 877.660156 1803.800781 915.5 C 1755.398438 937.261719 1769.140625 939.199219 1700.808594 969.5 C 1657.910156 988.511719 1645.03125 990.550781 1639.21875 992.449219 C 1614.238281 1000.640625 1600.199219 1006.390625 1596.410156 1008.011719 C 1570.5 1019.089844 1549.390625 1030.480469 1533.21875 1042.75 C 1518.339844 1054.050781 1502.328125 1069.371094 1485.351562 1088.941406 C 1482.28125 1092.488281 1471.019531 1110.378906 1449.910156 1141.539062 C 1442.808594 1152.03125 1433.839844 1161.222656 1424.738281 1170.363281 C 1416.789062 1178.339844 1408.699219 1184.738281 1401.039062 1190.382812 C 1394.921875 1194.882812 1385.390625 1199.835938 1371.851562 1204.464844 L 1384.070312 1201.320312 L 1384.078125 1201.320312 C 1372 1206.992188 1352.230469 1212.527344 1324.761719 1217.933594 C 1322.910156 1219.96875 1328.199219 1222.15625 1340.628906 1224.492188 L 1312.75 1229.460938 C 1310.058594 1229.726562 1307.441406 1229.859375 1304.910156 1229.859375 C 1301.480469 1229.859375 1298.191406 1229.648438 1295.050781 1229.128906 C 1285.929688 1227.617188 1279.300781 1225.761719 1274.960938 1224.082031 C 1270.46875 1222.339844 1263.980469 1218.066406 1255.339844 1211.226562 C 1254.558594 1210.609375 1253.828125 1210.507812 1253.441406 1210.507812 C 1253.25 1210.507812 1253.121094 1210.570312 1253.039062 1210.691406 C 1256.878906 1224.929688 1263.320312 1236.699219 1272.378906 1245.996094 L 1279.628906 1252.546875 C 1284.789062 1256.613281 1290.578125 1260.082031 1297.019531 1262.949219 C 1303.460938 1265.820312 1310.539062 1268.089844 1318.261719 1269.757812 C 1308.179688 1270.515625 1298.519531 1271.679688 1289.53125 1274.214844 C 1286.640625 1275.023438 1286.378906 1276.5 1288.480469 1277.589844 C 1304.859375 1286.089844 1321.710938 1290.285156 1339 1290.285156 C 1345.078125 1290.285156 1351.210938 1289.746094 1357.398438 1288.714844 C 1357.421875 1288.710938 1357.441406 1288.710938 1357.460938 1288.710938 C 1357.511719 1288.710938 1357.558594 1288.71875 1357.621094 1288.71875 C 1360.859375 1288.71875 1370.210938 1286.257812 1385.28125 1280.289062 C 1397.910156 1275.285156 1410.390625 1267.453125 1423.160156 1257.824219 L 1423.179688 1257.828125 C 1424.808594 1258.34375 1423.351562 1261.609375 1418.929688 1267.714844 C 1415.398438 1272.574219 1409.089844 1279.40625 1400.128906 1288.375 C 1399.261719 1289.242188 1399.660156 1289.867188 1401.050781 1290.011719 C 1421.101562 1280.789062 1436.550781 1270.695312 1448.109375 1260.507812 C 1459.070312 1250.839844 1481.609375 1227.136719 1515.019531 1188.601562 L 1515.03125 1188.601562 C 1514.859375 1189.097656 1514.71875 1189.59375 1514.558594 1190.074219 C 1511.421875 1199.570312 1508.738281 1216.960938 1503.109375 1241.558594 C 1499.949219 1255.316406 1494.980469 1265.382812 1491.511719 1272.648438 C 1487.859375 1280.292969 1475.738281 1294.660156 1455.25 1315.804688 C 1454.730469 1317.425781 1452.941406 1322.527344 1452.640625 1331.34375 C 1451.738281 1357.496094 1452.121094 1372.554688 1451.628906 1376.566406 C 1450.089844 1389.199219 1447.898438 1400.75 1445.261719 1411.359375 C 1444.179688 1415.699219 1440 1427.054688 1431.910156 1445.246094 L 1425.429688 1459.054688 C 1416.421875 1473.769531 1411.550781 1482.558594 1410.359375 1485.222656 C 1408.140625 1490.179688 1407.160156 1493.300781 1407.210938 1494.871094 C 1407.261719 1496.273438 1407.320312 1497.648438 1407.378906 1499 L 1407.378906 1499.003906 C 1380.78125 1510.6875 1352.550781 1523.109375 1322.679688 1536.277344 C 1311.71875 1540.3125 1262.46875 1571.863281 1174.929688 1630.929688 C 1084.671875 1652.511719 1038.980469 1664.929688 1037.828125 1668.183594 L 869.734375 1808.472656 C 858.140625 1817.996094 814.195312 1833.386719 737.894531 1854.640625 C 725.140625 1860.851562 702.519531 1885.089844 670.03125 1927.355469 L 612.605469 1952.5625 C 600.855469 1955.445312 590.644531 1956.890625 581.980469 1956.890625 C 576.988281 1956.890625 572.507812 1956.410156 568.542969 1955.453125 L 449.382812 1910.417969 C 362.015625 1897.363281 262.472656 1873.972656 150.753906 1840.25 C 93.984375 1849.695312 43.730469 1863.34375 0 1881.199219 L 0.0195312 1881.199219 L 0.0195312 2160 L 3839.640625 2159.914062 L 3839.640625 1869.476562 L 3839.628906 1869.476562 C 3836.96875 1869.710938 3834.269531 1869.925781 3831.53125 1870.121094 C 3830.710938 1870.21875 3829.648438 1870.265625 3828.351562 1870.265625 C 3815.140625 1870.265625 3777.191406 1865.207031 3714.488281 1855.089844 C 3634.769531 1854.398438 3593.378906 1852.964844 3590.351562 1850.78125 C 3573.570312 1848.992188 3521.839844 1838.046875 3435.160156 1817.949219 C 3422.121094 1815.453125 3407.671875 1813.847656 3391.800781 1813.128906 C 3389.699219 1812.976562 3387.308594 1812.898438 3384.621094 1812.898438 C 3374.738281 1812.898438 3360.898438 1813.945312 3343.101562 1816.039062 C 3257.609375 1831.121094 3200.019531 1839.714844 3170.339844 1841.824219 C 3151.839844 1844.851562 3134.519531 1853.210938 3118.390625 1866.910156 C 3094.769531 1894.085938 3075.019531 1916.621094 3059.128906 1934.519531 L 2773.878906 1927.28125 C 2758.96875 1925.726562 2732.441406 1917.960938 2694.289062 1903.984375 C 2683.289062 1901.664062 2673.511719 1900.503906 2664.96875 1900.503906 C 2664.078125 1900.503906 2663.210938 1900.519531 2662.351562 1900.542969 C 2611.128906 1902.949219 2576.460938 1908.03125 2558.359375 1915.792969 L 2483.730469 1987.515625 C 2474.839844 1995.390625 2464.601562 2000.621094 2453.019531 2003.214844 C 2447.539062 2004.390625 2440.96875 2004.976562 2433.328125 2004.976562 C 2429.589844 2004.976562 2425.589844 2004.835938 2421.328125 2004.554688 C 2373.859375 1996.640625 2343.960938 1992.246094 2331.628906 1991.367188 L 2237.929688 1991.230469 C 2219.660156 1989.371094 2203 1985.761719 2187.949219 1980.402344 C 2166.109375 1970.085938 2150.5 1961.53125 2141.128906 1954.738281 L 2141.121094 1954.742188 L 2149.171875 1940 C 2175.421875 1910.964844 2225.199219 1870.933594 2298.519531 1819.90625 C 2305.480469 1811.609375 2309.511719 1800.75 2310.589844 1787.324219 C 2302.929688 1770.085938 2287.03125 1747.894531 2262.878906 1720.75 C 2286.148438 1667.230469 2297.089844 1632.199219 2295.679688 1615.660156 L 2237.25 1481.410156 C 2275.601562 1346.453125 2293.039062 1270.261719 2289.589844 1252.835938 C 2288.398438 1221.996094 2267.460938 1204.839844 2226.75 1201.363281 L 2169.839844 1211.792969 C 2097.351562 1231.171875 2028.179688 1251.738281 1962.320312 1273.488281 L 1962.320312 1273.492188 C 1960.859375 1252.042969 1961.160156 1232.785156 1963.96875 1215.765625 C 1964.75 1210.992188 1966.261719 1206.210938 1968.761719 1201.785156 C 1983.039062 1176.433594 1993.699219 1155.878906 1999.609375 1139.519531 C 2001.648438 1133.851562 2003.898438 1124.03125 2006.480469 1110.121094 C 2006.648438 1109.980469 2006.828125 1109.851562 2007 1109.699219 C 2014.949219 1102.871094 2021.320312 1095.320312 2027.121094 1087.769531 C 2031.601562 1081.941406 2036.808594 1071.730469 2041.808594 1056.339844 C 2042.269531 1056.128906 2042.71875 1056.03125 2043.171875 1056.03125 C 2046.929688 1056.03125 2050.289062 1063.230469 2053.25 1077.628906 C 2053.359375 1077.691406 2053.480469 1077.71875 2053.609375 1077.71875 C 2055.25 1077.71875 2059.011719 1073.109375 2064.21875 1063.511719 C 2068.878906 1054.929688 2071.140625 1049.058594 2071.648438 1046.25 L 2081.800781 987.710938 C 2081.941406 987.308594 2082.121094 987.101562 2082.339844 987.101562 C 2082.769531 987.101562 2083.699219 987.820312 2084.109375 989.601562 C 2086.5 1000 2087.679688 1005.308594 2088.691406 1005.308594 C 2088.800781 1005.308594 2088.929688 1005.269531 2089 1005.128906 C 2091.648438 1000.28125 2095.039062 987.460938 2098.960938 966.640625 C 2099.601562 963.230469 2099.980469 955.421875 2097.859375 943.621094 C 2090.191406 900.949219 2085.808594 879.21875 2087.121094 877.839844 C 2087.289062 877.660156 2087.429688 877.53125 2087.660156 877.53125 C 2089.300781 877.53125 2093.421875 882.851562 2100.03125 893.5 C 2100.070312 893.5 2100.109375 893.5 2100.148438 893.5 C 2102.28125 893.5 2103.421875 891.78125 2103.28125 888.359375 C 2101.671875 848.121094 2099.96875 825.019531 2098.449219 819.039062 L 2075.859375 748.28125 L 2075.941406 740.71875 C 2076 735.621094 2076.609375 725.609375 2078.019531 710.730469 C 2078.738281 703.050781 2083.5 685.71875 2090.890625 658.390625 C 2092.289062 653.199219 2092.121094 649.289062 2092.261719 646.929688 C 2092.640625 640.390625 2091.789062 634.101562 2088.179688 628.519531 C 2085 623.578125 2079.089844 621.378906 2071.261719 621.378906 L 2071.25 621.378906 L 2070.328125 621.390625 C 2067.878906 624.351562 2065.53125 627.128906 2063.28125 629.71875 C 2063.730469 628.019531 2064.359375 626.210938 2064.691406 624.210938 C 2066.390625 613.679688 2065.449219 605.230469 2061.480469 599.511719 C 2056.621094 592.480469 2048.871094 588.570312 2039.070312 587.179688 Z M 2039.070312 587.179688 "/>
</svg>
